<svg xmlns="http://www.w3.org/2000/svg" xmlns:xlink="http://www.w3.org/1999/xlink" width="500" zoomAndPan="magnify" viewBox="0 0 375 374.999991" height="500" preserveAspectRatio="xMidYMid meet" version="1.0"><defs><g/><clipPath id="3c16bc7101"><path d="M 6 37.5 L 368.894531 37.5 L 368.894531 335 L 6 335 Z M 6 37.5 " clip-rule="nonzero"/></clipPath></defs><rect x="-37.5" width="450" fill="#ffffff" y="-37.499999" height="449.999989" fill-opacity="1"/><rect x="-37.5" width="450" fill="#38b6ff" y="-37.499999" height="449.999989" fill-opacity="1"/><g clip-path="url(#3c16bc7101)"><path fill="#5ce1e6" d="M 209.121094 329.976562 C 213.921875 329.292969 218.714844 328.410156 223.515625 327.285156 C 227.035156 326.457031 230.519531 325.464844 233.964844 324.335938 C 235.46875 324.613281 240.027344 325.574219 240.613281 325.695312 C 264.628906 337.289062 287.289062 338.472656 303.640625 326.324219 C 293.714844 327.222656 285.566406 326.148438 274.136719 323.765625 C 260.742188 320.976562 251.996094 322.191406 244.613281 324.058594 C 242.867188 323.734375 238.730469 322.863281 238.421875 322.796875 C 245.8125 320.097656 252.996094 316.773438 259.847656 313.003906 C 260.359375 312.722656 260.863281 312.433594 261.371094 312.148438 C 269.339844 316.53125 285.898438 320.355469 300.402344 310.269531 C 295.9375 310.96875 283.355469 307.511719 275.929688 307.816406 C 271.375 308.003906 269.015625 309.085938 264.9375 310.066406 C 269.429688 307.355469 273.78125 304.40625 277.960938 301.238281 C 279.566406 300.988281 284.191406 300.402344 284.640625 300.347656 C 309.84375 303.835938 330.765625 298.398438 342.003906 282.574219 C 333.296875 286.300781 325.625 287.722656 314.589844 288.929688 C 301.546875 290.351562 293.980469 293.984375 287.832031 297.851562 C 286.230469 298.082031 281.800781 298.644531 281.191406 298.722656 C 287.84375 293.394531 294.039062 287.503906 299.699219 281.136719 C 308.140625 282.691406 324.417969 281.109375 334.429688 267.425781 C 330.640625 269.433594 318.261719 270.21875 311.691406 272.789062 C 307.414062 274.460938 305.667969 276.273438 301.894531 278.597656 C 305.460938 274.40625 308.808594 270.023438 311.894531 265.464844 C 313.304688 264.734375 317.945312 262.570312 318.574219 262.273438 C 342.085938 257.59375 359 246.175781 364.171875 228.601562 C 357.519531 234.625 351.082031 238.261719 341.578125 242.746094 C 330.300781 248.054688 324.667969 253.734375 320.355469 259.136719 C 318.859375 259.882812 314.660156 261.847656 314.097656 262.113281 C 315.605469 259.75 317.054688 257.335938 318.429688 254.886719 C 321.234375 249.886719 323.757812 244.714844 325.992188 239.410156 C 334.042969 238.167969 348.070312 231.726562 352.808594 216.417969 C 350.027344 219.390625 339.183594 223.910156 334.085938 228.242188 C 330.847656 230.996094 329.808594 233.128906 327.273438 236.265625 C 329.300781 231.136719 331.046875 225.898438 332.496094 220.582031 C 333.6875 219.347656 337.734375 215.496094 338.269531 214.984375 C 357.628906 203.59375 369.09375 188.269531 368.304688 171.085938 C 364.214844 178.507812 359.589844 183.738281 352.472656 190.660156 C 344.039062 198.878906 340.761719 205.683594 338.570312 211.835938 C 337.476562 212.917969 334.074219 216.152344 333.511719 216.699219 C 335.605469 208.140625 336.945312 199.402344 337.46875 190.628906 C 344.28125 186.96875 354.648438 176.945312 354.175781 161.949219 C 352.609375 165.453125 344.3125 172.828125 341.09375 178.257812 C 339.132812 181.566406 338.800781 183.742188 337.636719 187.0625 C 337.714844 184.929688 337.734375 182.800781 337.714844 180.667969 C 337.675781 177.550781 337.542969 174.457031 337.320312 171.382812 C 338.054688 169.804688 340.695312 164.839844 341.023438 164.226562 C 353.835938 148.742188 358.808594 132.367188 352.894531 118.164062 C 351.734375 125.632812 349.449219 131.425781 345.601562 139.394531 C 340.953125 149.023438 340.339844 155.800781 340.40625 161.699219 C 339.792969 162.902344 337.519531 167.179688 337.046875 168.09375 C 336.21875 159.355469 334.632812 150.785156 332.371094 142.375 C 337.296875 136.996094 343.378906 124.949219 338.386719 111.804688 C 338.070312 115.402344 332.945312 124.503906 331.742188 130.328125 C 331.046875 133.730469 331.355469 135.746094 331.375 138.832031 C 329.855469 133.695312 328.09375 128.613281 326.074219 123.585938 C 326.257812 121.800781 327.363281 115.332031 327.523438 114.320312 C 332.902344 97.714844 331.675781 82.871094 322.398438 73.128906 C 323.820312 79.707031 323.765625 85.253906 323.109375 93.109375 C 322.316406 102.648438 323.988281 108.492188 325.941406 113.386719 C 325.75 114.628906 324.941406 119.367188 324.78125 120.441406 C 324.128906 118.90625 323.457031 117.378906 322.761719 115.859375 C 319.496094 109.375 315.863281 103.210938 311.867188 97.335938 C 314.628906 91.113281 316.4375 78.460938 307.925781 68.257812 C 308.746094 71.546875 306.984375 81.175781 307.695312 86.703125 C 308.132812 90.113281 309.109375 91.804688 310.117188 94.820312 C 306.890625 90.277344 303.441406 85.914062 299.75 81.71875 C 299.3125 80.011719 298.195312 73.972656 298.027344 73.101562 C 297.863281 59.382812 293.214844 48.652344 283.863281 43.804688 C 286.566406 48.269531 287.933594 52.351562 289.4375 58.277344 C 291.222656 65.328125 293.851562 69.179688 296.472656 72.246094 C 296.722656 73.5 297.640625 78.46875 297.878906 79.625 C 294.855469 76.304688 291.675781 73.085938 288.347656 69.980469 C 285.335938 67.179688 282.097656 64.546875 278.714844 62.0625 C 279.242188 55.792969 276.871094 43.863281 265.996094 37.542969 C 267.761719 40.164062 269.296875 49.171875 271.6875 53.792969 C 273.269531 56.871094 274.773438 57.992188 276.84375 60.714844 C 272.53125 57.664062 268.015625 54.84375 263.472656 52.226562 C 258.835938 45.183594 250.140625 40.722656 240.847656 39.628906 C 243.875 46.832031 255.765625 52.839844 262.246094 54.019531 C 265.042969 55.734375 267.824219 57.550781 270.167969 59.230469 C 272.335938 60.785156 274.46875 62.398438 276.546875 64.0625 C 273.078125 63.09375 271.695312 62.058594 268.347656 61.640625 C 263.703125 61.066406 255.617188 62.578125 252.855469 61.902344 C 261.644531 69.171875 272.558594 67.378906 277.640625 64.945312 C 283.738281 69.914062 289.457031 75.355469 294.71875 81.222656 C 293.527344 81.007812 292.078125 80.867188 290.035156 80.757812 C 286.722656 79.335938 285.324219 78.105469 281.898438 77.261719 C 276.9375 76.03125 267.980469 76.625 265.070312 75.539062 C 273.445312 84.324219 285.113281 84.035156 291.085938 82.1875 C 293.527344 82.351562 294.96875 82.59375 296.300781 83.019531 C 299.222656 86.382812 302.007812 89.875 304.613281 93.492188 C 305.765625 95.066406 306.890625 96.652344 307.972656 98.257812 C 305.996094 97.289062 304.582031 96.453125 302.015625 95.839844 C 297.128906 94.6875 288.347656 95.359375 285.476562 94.320312 C 293.195312 102.253906 303.621094 102.472656 309.753906 100.964844 C 313.941406 107.484375 317.535156 114.265625 320.585938 121.273438 C 319.734375 120.910156 318.773438 120.570312 317.664062 120.234375 C 313.5625 117.421875 312.4375 115.539062 308.503906 113.539062 C 303.273438 110.886719 293.097656 109.238281 290.125 107.273438 C 296.699219 118.378906 308.445312 121.503906 315.828125 121.488281 C 318.425781 122.167969 320.1875 122.839844 321.621094 123.714844 C 324.054688 129.59375 326.121094 135.632812 327.828125 141.808594 C 325.765625 139.898438 324.460938 138.390625 321.628906 136.734375 C 316.492188 133.734375 306.304688 131.453125 303.410156 129.285156 C 309.449219 141.015625 321.28125 144.855469 328.746094 145.230469 C 329.855469 149.578125 330.800781 153.996094 331.585938 158.46875 C 331.964844 161.5625 332.277344 164.652344 332.496094 167.734375 C 331.273438 166.640625 329.808594 165.625 328.085938 164.65625 C 324.582031 160.738281 323.746094 158.410156 320.023438 155.296875 C 314.902344 151.019531 304.039062 146.585938 301.253906 143.644531 C 305.953125 158.4375 319.332031 164.828125 327.472656 166.265625 C 329.664062 167.511719 331.363281 168.84375 332.664062 170.316406 C 333.058594 176.890625 333.066406 183.453125 332.664062 189.984375 C 330.914062 187.164062 330.070312 185.164062 327.503906 182.476562 C 323.136719 177.910156 313.402344 172.59375 311.085938 169.53125 C 313.832031 183.367188 324.921875 190.761719 332.4375 193.289062 C 331.800781 200.9375 330.582031 208.535156 328.699219 216.054688 C 327.925781 215.082031 327.160156 214.082031 326.421875 213.089844 C 322.804688 206.359375 322.984375 203.480469 319.542969 198.402344 C 315.316406 192.164062 304.914062 183.976562 302.796875 179.917969 C 303.273438 196.621094 314.695312 207.488281 323.027344 212.007812 C 323.515625 212.644531 326.828125 217.035156 328.066406 218.507812 C 327.285156 221.382812 326.421875 224.242188 325.449219 227.089844 C 324.292969 230.464844 323.011719 233.765625 321.621094 237.007812 C 320.597656 233.339844 320.429688 231 318.582031 227.316406 C 315.578125 221.339844 307.363281 212.941406 305.964844 209.125 C 304.445312 224.078125 313.511719 235.046875 320.355469 239.882812 C 317.195312 246.832031 313.503906 253.46875 309.324219 259.78125 C 308.976562 258.574219 308.589844 257.269531 308.148438 255.9375 C 306.492188 247.976562 307.480469 244.921875 305.386719 238.527344 C 302.761719 230.5 294.082031 218.464844 293.054688 213.433594 C 288.273438 232.117188 297.902344 247.722656 305.601562 254.90625 C 306.363281 256.902344 307.71875 261.582031 307.835938 261.988281 C 304.195312 267.28125 300.207031 272.332031 295.917969 277.148438 C 296.09375 273.246094 296.65625 270.851562 296.011719 266.617188 C 294.949219 259.640625 289.4375 248.53125 289.28125 244.246094 C 282.917969 258.675781 288.335938 272.5625 293.601562 279.6875 C 289.457031 284.136719 285.042969 288.378906 280.378906 292.390625 C 279.226562 293.382812 278.050781 294.355469 276.851562 295.308594 C 276.992188 293.515625 277.09375 291.585938 277.140625 289.667969 C 277.863281 282.132812 279.542969 279.246094 279.296875 272.523438 C 278.96875 263.585938 273.644531 248.808594 274.074219 243.394531 C 263.742188 261.027344 269.007812 279.738281 274.761719 289.285156 C 274.703125 292.074219 274.519531 294.910156 274.28125 297.300781 C 269.238281 301.109375 263.84375 304.578125 258.25 307.65625 C 259.730469 303.28125 261.164062 301.054688 261.859375 296.300781 C 262.933594 288.949219 260.808594 276.070312 261.972656 271.707031 C 250.960938 284.460938 252.339844 300.382812 255.546875 309.101562 C 249.082031 312.480469 242.363281 315.339844 235.59375 317.601562 C 235.730469 316.941406 236.296875 313.945312 236.457031 313.132812 C 239.019531 305.789062 241.386719 303.421875 242.785156 296.769531 C 244.621094 288.046875 243.039062 272.464844 244.753906 267.324219 C 230.578125 281.824219 231.078125 301.074219 234.308594 311.734375 C 234.070312 312.890625 233.207031 317.441406 232.980469 318.445312 C 224.742188 321.042969 216.4375 322.859375 208.027344 324.027344 Z M 165.859375 329.976562 C 161.050781 329.292969 156.261719 328.410156 151.460938 327.285156 C 147.945312 326.457031 144.453125 325.464844 141.003906 324.335938 C 139.511719 324.613281 134.945312 325.574219 134.363281 325.695312 C 110.347656 337.289062 87.683594 338.472656 71.332031 326.324219 C 81.265625 327.222656 89.40625 326.148438 100.839844 323.765625 C 114.234375 320.976562 122.984375 322.191406 130.363281 324.058594 C 132.105469 323.734375 136.246094 322.863281 136.554688 322.796875 C 129.160156 320.097656 121.976562 316.773438 115.125 313.003906 C 114.613281 312.722656 114.113281 312.433594 113.605469 312.148438 C 105.640625 316.53125 89.082031 320.355469 74.574219 310.269531 C 79.035156 310.96875 91.625 307.511719 99.046875 307.816406 C 103.601562 308.003906 105.960938 309.085938 110.039062 310.066406 C 105.542969 307.355469 101.191406 304.40625 97.011719 301.238281 C 95.410156 300.988281 90.78125 300.402344 90.332031 300.347656 C 65.132812 303.835938 44.210938 298.398438 32.96875 282.574219 C 41.675781 286.300781 49.351562 287.722656 60.382812 288.929688 C 73.429688 290.351562 80.996094 293.984375 87.148438 297.851562 C 88.742188 298.082031 93.179688 298.644531 93.78125 298.722656 C 87.136719 293.394531 80.9375 287.503906 75.28125 281.136719 C 66.839844 282.691406 50.554688 281.109375 40.546875 267.425781 C 44.332031 269.433594 56.710938 270.21875 63.289062 272.789062 C 67.558594 274.460938 69.308594 276.273438 73.078125 278.597656 C 69.511719 274.40625 66.175781 270.023438 63.089844 265.464844 C 61.667969 264.734375 57.03125 262.570312 56.402344 262.273438 C 32.886719 257.59375 15.972656 246.175781 10.804688 228.601562 C 17.460938 234.625 23.890625 238.261719 33.402344 242.746094 C 44.671875 248.054688 50.304688 253.734375 54.617188 259.136719 C 56.117188 259.882812 60.316406 261.847656 60.882812 262.113281 C 59.367188 259.75 57.921875 257.335938 56.546875 254.886719 C 53.738281 249.886719 51.214844 244.714844 48.988281 239.410156 C 40.933594 238.167969 26.90625 231.726562 22.171875 216.417969 C 24.949219 219.390625 35.792969 223.910156 40.890625 228.242188 C 44.128906 230.996094 45.160156 233.128906 47.699219 236.265625 C 45.679688 231.136719 43.933594 225.898438 42.476562 220.582031 C 41.292969 219.347656 37.246094 215.496094 36.707031 214.984375 C 17.347656 203.59375 5.886719 188.269531 6.667969 171.085938 C 10.757812 178.507812 15.386719 183.738281 22.5 190.660156 C 30.933594 198.878906 34.214844 205.683594 36.40625 211.835938 C 37.496094 212.917969 40.898438 216.152344 41.460938 216.699219 C 39.367188 208.140625 38.03125 199.402344 37.503906 190.628906 C 30.695312 186.96875 20.332031 176.945312 20.804688 161.949219 C 22.371094 165.453125 30.660156 172.828125 33.878906 178.257812 C 35.84375 181.566406 36.171875 183.742188 37.335938 187.0625 C 37.261719 184.929688 37.238281 182.800781 37.261719 180.667969 C 37.296875 177.550781 37.433594 174.457031 37.660156 171.382812 C 36.917969 169.804688 34.28125 164.839844 33.960938 164.226562 C 21.136719 148.742188 16.164062 132.367188 22.082031 118.164062 C 23.242188 125.632812 25.523438 131.425781 29.371094 139.394531 C 34.019531 149.023438 34.632812 155.800781 34.566406 161.699219 C 35.179688 162.902344 37.460938 167.179688 37.933594 168.09375 C 38.757812 159.355469 40.339844 150.785156 42.601562 142.375 C 37.671875 136.996094 31.59375 124.949219 36.585938 111.804688 C 36.910156 115.402344 42.027344 124.503906 43.230469 130.328125 C 43.933594 133.730469 43.617188 135.746094 43.609375 138.832031 C 45.117188 133.695312 46.886719 128.613281 48.898438 123.585938 C 48.722656 121.800781 47.613281 115.332031 47.453125 114.320312 C 42.070312 97.714844 43.296875 82.871094 52.578125 73.128906 C 51.164062 79.707031 51.207031 85.253906 51.867188 93.109375 C 52.660156 102.648438 50.984375 108.492188 49.03125 113.386719 C 49.222656 114.628906 50.03125 119.367188 50.199219 120.441406 C 50.847656 118.90625 51.515625 117.378906 52.210938 115.859375 C 55.476562 109.375 59.109375 103.210938 63.113281 97.335938 C 60.34375 91.113281 58.539062 78.460938 67.046875 68.257812 C 66.234375 71.546875 67.992188 81.175781 67.277344 86.703125 C 66.839844 90.113281 65.867188 91.804688 64.859375 94.820312 C 68.082031 90.277344 71.535156 85.914062 75.222656 81.71875 C 75.660156 80.011719 76.777344 73.972656 76.945312 73.101562 C 77.113281 59.382812 81.757812 48.652344 91.113281 43.804688 C 88.40625 48.269531 87.046875 52.351562 85.542969 58.277344 C 83.753906 65.328125 81.121094 69.179688 78.507812 72.246094 C 78.25 73.5 77.332031 78.46875 77.09375 79.625 C 80.121094 76.304688 83.296875 73.085938 86.632812 69.980469 C 89.636719 67.179688 92.875 64.546875 96.257812 62.0625 C 95.734375 55.792969 98.105469 43.863281 108.976562 37.542969 C 107.214844 40.164062 105.683594 49.171875 103.292969 53.792969 C 101.703125 56.871094 100.207031 57.992188 98.128906 60.714844 C 102.441406 57.664062 106.957031 54.84375 111.5 52.226562 C 116.140625 45.183594 124.832031 40.722656 134.125 39.628906 C 131.097656 46.832031 119.21875 52.839844 112.726562 54.019531 C 109.933594 55.734375 107.152344 57.550781 104.804688 59.230469 C 102.636719 60.785156 100.511719 62.398438 98.425781 64.0625 C 101.902344 63.09375 103.285156 62.058594 106.628906 61.640625 C 111.273438 61.066406 119.355469 62.578125 122.125 61.902344 C 113.328125 69.171875 102.414062 67.378906 97.335938 64.945312 C 91.242188 69.914062 85.515625 75.355469 80.253906 81.222656 C 81.445312 81.007812 82.898438 80.867188 84.9375 80.757812 C 88.253906 79.335938 89.652344 78.105469 93.078125 77.261719 C 98.035156 76.03125 106.992188 76.625 109.902344 75.539062 C 101.527344 84.324219 89.867188 84.035156 83.886719 82.1875 C 81.453125 82.351562 80.007812 82.59375 78.671875 83.019531 C 75.75 86.382812 72.972656 89.875 70.367188 93.492188 C 69.207031 95.066406 68.089844 96.652344 67.003906 98.257812 C 68.980469 97.289062 70.390625 96.453125 72.964844 95.839844 C 77.84375 94.6875 86.632812 95.359375 89.496094 94.320312 C 81.777344 102.253906 71.355469 102.472656 65.226562 100.964844 C 61.039062 107.484375 57.441406 114.265625 54.386719 121.273438 C 55.238281 120.910156 56.199219 120.570312 57.3125 120.234375 C 61.414062 117.421875 62.535156 115.539062 66.46875 113.539062 C 71.703125 110.886719 81.875 109.238281 84.847656 107.273438 C 78.269531 118.378906 66.539062 121.503906 59.144531 121.488281 C 56.546875 122.167969 54.796875 122.839844 53.351562 123.714844 C 50.917969 129.59375 48.863281 135.632812 47.144531 141.808594 C 49.210938 139.898438 50.511719 138.390625 53.34375 136.734375 C 58.480469 133.734375 68.671875 131.453125 71.5625 129.285156 C 65.53125 141.015625 53.691406 144.855469 46.226562 145.230469 C 45.117188 149.578125 44.175781 153.996094 43.394531 158.46875 C 43.007812 161.5625 42.707031 164.652344 42.476562 167.734375 C 43.699219 166.640625 45.160156 165.625 46.886719 164.65625 C 50.394531 160.738281 51.230469 158.410156 54.953125 155.296875 C 60.078125 151.019531 70.933594 146.585938 73.722656 143.644531 C 69.023438 158.4375 55.636719 164.828125 47.507812 166.265625 C 45.316406 167.511719 43.609375 168.84375 42.304688 170.316406 C 41.917969 176.890625 41.90625 183.453125 42.304688 189.984375 C 44.058594 187.164062 44.902344 185.164062 47.46875 182.476562 C 51.835938 177.910156 61.574219 172.59375 63.886719 169.53125 C 61.144531 183.367188 50.058594 190.761719 42.542969 193.289062 C 43.175781 200.9375 44.394531 208.535156 46.273438 216.054688 C 47.050781 215.082031 47.8125 214.082031 48.558594 213.089844 C 52.175781 206.359375 51.996094 203.480469 55.429688 198.402344 C 59.660156 192.164062 70.058594 183.976562 72.175781 179.917969 C 71.703125 196.621094 60.277344 207.488281 51.945312 212.007812 C 51.457031 212.644531 48.148438 217.035156 46.90625 218.507812 C 47.683594 221.382812 48.558594 224.242188 49.53125 227.089844 C 50.6875 230.464844 51.964844 233.765625 53.351562 237.007812 C 54.375 233.339844 54.542969 231 56.394531 227.316406 C 59.398438 221.339844 67.617188 212.941406 69.011719 209.125 C 70.523438 224.078125 61.464844 235.046875 54.617188 239.882812 C 57.78125 246.832031 61.476562 253.46875 65.648438 259.78125 C 65.996094 258.574219 66.382812 257.269531 66.828125 255.9375 C 68.484375 247.976562 67.5 244.921875 69.585938 238.527344 C 72.210938 230.5 80.890625 218.464844 81.917969 213.433594 C 86.703125 232.117188 77.078125 247.722656 69.371094 254.90625 C 68.609375 256.902344 67.261719 261.582031 67.140625 261.988281 C 70.777344 267.28125 74.765625 272.332031 79.0625 277.148438 C 78.878906 273.246094 78.316406 270.851562 78.964844 266.617188 C 80.027344 259.640625 85.535156 248.53125 85.695312 244.246094 C 92.054688 258.675781 86.640625 272.5625 81.371094 279.6875 C 85.515625 284.136719 89.933594 288.378906 94.601562 292.390625 C 95.746094 293.382812 96.925781 294.355469 98.121094 295.308594 C 97.980469 293.515625 97.882812 291.585938 97.832031 289.667969 C 97.109375 282.132812 95.429688 279.246094 95.675781 272.523438 C 96.007812 263.585938 101.328125 248.808594 100.90625 243.394531 C 111.234375 261.027344 105.964844 279.738281 100.210938 289.285156 C 100.269531 292.074219 100.453125 294.910156 100.695312 297.300781 C 105.734375 301.109375 111.128906 304.578125 116.730469 307.65625 C 115.242188 303.28125 113.808594 301.054688 113.117188 296.300781 C 112.039062 288.949219 114.171875 276.070312 113.007812 271.707031 C 124.011719 284.460938 122.636719 300.382812 119.421875 309.101562 C 125.898438 312.480469 132.617188 315.339844 139.378906 317.601562 C 139.246094 316.941406 138.675781 313.945312 138.515625 313.132812 C 135.960938 305.789062 133.59375 303.421875 132.1875 296.769531 C 130.351562 288.046875 131.9375 272.464844 130.21875 267.324219 C 144.398438 281.824219 143.890625 301.074219 140.671875 311.734375 C 140.90625 312.890625 141.773438 317.441406 141.992188 318.445312 C 150.238281 321.042969 158.535156 322.859375 166.953125 324.027344 L 165.859375 329.976562 " fill-opacity="1" fill-rule="nonzero"/></g><g fill="#000000" fill-opacity="1"><g transform="translate(42.138543, 237.749984)"><g><path d="M 83.25 -27.75 C 82.445312 -23.945312 81.59375 -20.492188 80.6875 -17.390625 C 79.789062 -14.296875 78.59375 -11.625 77.09375 -9.375 C 75.59375 -7.125 73.691406 -5.398438 71.390625 -4.203125 C 69.097656 -3.003906 66.203125 -2.40625 62.703125 -2.40625 L 31.953125 -2.40625 L 31.953125 -98.40625 L 46.203125 -98.40625 L 46.203125 -100.796875 L 4.5 -100.796875 L 4.5 -98.40625 L 17.40625 -98.40625 L 17.40625 -2.40625 L 4.5 -2.40625 L 4.5 0 L 81.75 0 C 84.644531 0 86.09375 -1.597656 86.09375 -4.796875 L 86.09375 -27.296875 C 86.09375 -29.703125 85.695312 -30.90625 84.90625 -30.90625 C 84.195312 -30.90625 83.644531 -29.851562 83.25 -27.75 Z M 83.25 -27.75 "/></g></g></g><g fill="#000000" fill-opacity="1"><g transform="translate(131.988563, 237.749984)"><g><path d="M 5.09375 -2.40625 L 5.09375 0 L 31.5 0 L 31.5 -2.40625 L 19.5 -2.40625 L 19.5 -95.84375 L 52.953125 0 L 54.90625 0 L 88.34375 -96.453125 L 88.34375 -2.40625 L 76.34375 -2.40625 L 76.34375 0 L 114.90625 0 L 114.90625 -2.40625 L 102.90625 -2.40625 L 102.90625 -98.40625 L 114.90625 -98.40625 L 114.90625 -100.796875 L 87.15625 -100.796875 L 60.453125 -23.703125 L 32.84375 -100.796875 L 5.09375 -100.796875 L 5.09375 -98.40625 L 17.09375 -98.40625 L 17.09375 -2.40625 Z M 5.09375 -2.40625 "/></g></g></g><g fill="#000000" fill-opacity="1"><g transform="translate(251.538585, 237.749984)"><g><path d="M 67.65625 -101.84375 L 63.296875 -96.296875 C 61.492188 -97.296875 59.789062 -98.195312 58.1875 -99 C 56.59375 -99.800781 54.96875 -100.453125 53.3125 -100.953125 C 51.664062 -101.453125 49.914062 -101.828125 48.0625 -102.078125 C 46.21875 -102.328125 44.097656 -102.453125 41.703125 -102.453125 C 36.796875 -102.453125 32.414062 -101.648438 28.5625 -100.046875 C 24.71875 -98.453125 21.445312 -96.300781 18.75 -93.59375 C 16.050781 -90.894531 14 -87.796875 12.59375 -84.296875 C 11.195312 -80.796875 10.5 -77.097656 10.5 -73.203125 C 10.5 -67.898438 12.125 -63.046875 15.375 -58.640625 C 18.625 -54.242188 23.695312 -50.894531 30.59375 -48.59375 C 33.894531 -47.5 36.695312 -46.597656 39 -45.890625 C 41.300781 -45.191406 43.453125 -44.519531 45.453125 -43.875 C 47.453125 -43.226562 49.472656 -42.53125 51.515625 -41.78125 C 53.566406 -41.03125 55.945312 -40.003906 58.65625 -38.703125 C 62.050781 -37.097656 64.347656 -34.867188 65.546875 -32.015625 C 66.742188 -29.171875 67.34375 -26.300781 67.34375 -23.40625 C 67.34375 -19.800781 66.644531 -16.523438 65.25 -13.578125 C 63.851562 -10.628906 62.003906 -8.15625 59.703125 -6.15625 C 57.398438 -4.15625 54.75 -2.601562 51.75 -1.5 C 48.75 -0.394531 45.695312 0.15625 42.59375 0.15625 C 39 0.15625 35.550781 -0.46875 32.25 -1.71875 C 28.945312 -2.96875 25.894531 -4.742188 23.09375 -7.046875 C 20.300781 -9.347656 17.878906 -12.195312 15.828125 -15.59375 C 13.773438 -19 12.195312 -22.800781 11.09375 -27 C 10.800781 -28.300781 10.253906 -28.953125 9.453125 -28.953125 C 8.753906 -28.953125 8.40625 -28.25 8.40625 -26.84375 L 8.40625 0 C 8.40625 1.300781 8.851562 1.953125 9.75 1.953125 C 10.351562 1.953125 11.003906 1.453125 11.703125 0.453125 L 17.09375 -7.34375 C 18.300781 -6.25 19.78125 -5.097656 21.53125 -3.890625 C 23.28125 -2.691406 25.226562 -1.59375 27.375 -0.59375 C 29.519531 0.40625 31.816406 1.226562 34.265625 1.875 C 36.722656 2.519531 39.25 2.84375 41.84375 2.84375 C 46.644531 2.84375 51.09375 1.96875 55.1875 0.21875 C 59.289062 -1.53125 62.84375 -3.953125 65.84375 -7.046875 C 68.84375 -10.148438 71.21875 -13.828125 72.96875 -18.078125 C 74.71875 -22.328125 75.59375 -26.898438 75.59375 -31.796875 C 75.59375 -38.492188 74.019531 -44.164062 70.875 -48.8125 C 67.726562 -53.46875 62.753906 -56.796875 55.953125 -58.796875 C 53.648438 -59.492188 51.5 -60.09375 49.5 -60.59375 C 47.5 -61.09375 45.445312 -61.644531 43.34375 -62.25 C 41.25 -62.851562 39.050781 -63.53125 36.75 -64.28125 C 34.445312 -65.03125 31.894531 -65.953125 29.09375 -67.046875 C 26 -68.242188 23.648438 -70.09375 22.046875 -72.59375 C 20.453125 -75.09375 19.65625 -77.992188 19.65625 -81.296875 C 19.65625 -84.398438 20.300781 -87.125 21.59375 -89.46875 C 22.894531 -91.820312 24.570312 -93.75 26.625 -95.25 C 28.675781 -96.75 31.023438 -97.875 33.671875 -98.625 C 36.328125 -99.375 39.003906 -99.75 41.703125 -99.75 C 45.796875 -99.75 49.394531 -99.046875 52.5 -97.640625 C 55.601562 -96.242188 58.203125 -94.394531 60.296875 -92.09375 C 62.398438 -89.800781 64.078125 -87.15625 65.328125 -84.15625 C 66.578125 -81.15625 67.398438 -78.050781 67.796875 -74.84375 C 67.898438 -73.84375 68.351562 -73.34375 69.15625 -73.34375 C 69.851562 -73.34375 70.203125 -73.84375 70.203125 -74.84375 L 70.203125 -101.546875 C 70.203125 -102.546875 69.898438 -103.046875 69.296875 -103.046875 C 68.796875 -103.046875 68.25 -102.644531 67.65625 -101.84375 Z M 67.65625 -101.84375 "/></g></g></g></svg>